<svg xmlns="http://www.w3.org/2000/svg" viewBox="0 0 25 24.999">
  <defs>
    <style>
      .cls-1 {
        fill: #5db4d3;
      }
    </style>
  </defs>
  <g id="Group_1622" data-name="Group 1622" transform="translate(-475 -995)">
    <path id="Exclusion_4" data-name="Exclusion 4" class="cls-1" d="M-3363.5-2841a12.418,12.418,0,0,1-8.839-3.661A12.417,12.417,0,0,1-3376-2853.5a12.418,12.418,0,0,1,3.661-8.839A12.418,12.418,0,0,1-3363.5-2866a12.419,12.419,0,0,1,8.839,3.661A12.419,12.419,0,0,1-3351-2853.5a12.417,12.417,0,0,1-3.661,8.838A12.419,12.419,0,0,1-3363.5-2841Zm-1.242-13.887v7.611h2.224v-9.413h-3.428v1.8Zm1.134-5.449a1.23,1.23,0,0,0-.9.375,1.23,1.23,0,0,0-.374.9,1.229,1.229,0,0,0,.374.9,1.23,1.23,0,0,0,.9.375,1.233,1.233,0,0,0,.9-.375,1.231,1.231,0,0,0,.374-.9,1.232,1.232,0,0,0-.374-.9A1.233,1.233,0,0,0-3363.608-2860.337Z" transform="translate(3851 3861)"/>
  </g>
</svg>
