<svg xmlns="http://www.w3.org/2000/svg" viewBox="0 0 8.535 15.003">
  <defs>
    <style>
      .cls-1 {
        fill: #154569;
      }
    </style>
  </defs>
  <path id="Union_345" data-name="Union 345" class="cls-1" d="M-1086.085,31.161a1.293,1.293,0,0,1,0-1.83l5.293-5.293-5.293-5.293a1.294,1.294,0,0,1,0-1.83,1.294,1.294,0,0,1,1.83,0l5.946,5.946a1.293,1.293,0,0,1,.352,1.178,1.294,1.294,0,0,1-.352,1.175l-5.946,5.946a1.292,1.292,0,0,1-.915.379A1.289,1.289,0,0,1-1086.085,31.161Z" transform="translate(1086.464 -16.536)"/>
</svg>
