<svg id="Layer_1" data-name="Layer 1" xmlns="http://www.w3.org/2000/svg" viewBox="0 0 40 40"><defs><style>.cls-1{fill:#1f6193;}</style></defs><title>email-icon</title><g id="Group_1419" data-name="Group 1419"><g id="Group_1414" data-name="Group 1414"><path id="Subtraction_2" data-name="Subtraction 2" class="cls-1" d="M20,39.5A19.38,19.38,0,0,1,6.21,33.79,19.43,19.43,0,0,1,.5,20,19.52,19.52,0,0,1,12.41,2,19.21,19.21,0,0,1,20,.5,19.65,19.65,0,0,1,27.6,2,19.6,19.6,0,0,1,38,12.41,19.21,19.21,0,0,1,39.5,20,19.65,19.65,0,0,1,38,27.6a19.45,19.45,0,0,1-4.18,6.19A19.43,19.43,0,0,1,20,39.5ZM11.07,13.25a1,1,0,0,0-1,1.09V25.26a1,1,0,0,0,1,1.06H28a1,1,0,0,0,1-1V14.42a1,1,0,0,0-.93-1.16h-17Zm8.5,7.23h0c-.12,0-2.16-1.33-4.14-2.58l-.14-.08C13.84,16.9,12.47,16,12,15.75c-.25-.08-.38-.22-.38-.43A.39.39,0,0,1,12,14.9H12c.16,0,6.32,3.87,6.69,4.14l1,.59c.15-.11.3-.2.44-.29s.31-.2.46-.3c.65-.43,6.38-4.14,6.54-4.14a.38.38,0,0,1,.42.35.09.09,0,0,1,0,.07c0,.24-.43.48-.77.68l0,0-.09.05c-1.46.89-2.92,1.82-4.33,2.73l-.17.1c-.67.43-1.36.88-2,1.3a1,1,0,0,1-.53.28Z"/></g></g></svg>