<svg xmlns="http://www.w3.org/2000/svg" viewBox="0 0 30.881 30.88">
  <defs>
    <style>
      .cls-1 {
        fill: #5db4d3;
      }
    </style>
  </defs>
  <g id="Group_1582" data-name="Group 1582" transform="translate(-970.5 -2463)">
    <path id="Exclusion_3" data-name="Exclusion 3" class="cls-1" d="M-5490.56,417.88a15.34,15.34,0,0,1-10.92-4.519,15.338,15.338,0,0,1-4.521-10.92,15.34,15.34,0,0,1,4.521-10.921A15.339,15.339,0,0,1-5490.56,387a15.34,15.34,0,0,1,10.921,4.519,15.339,15.339,0,0,1,4.52,10.921,15.337,15.337,0,0,1-4.52,10.92A15.341,15.341,0,0,1-5490.56,417.88Zm-6.9-20.586a.847.847,0,0,0-.815.942v8.75a.829.829,0,0,0,.815.858h13.639a.829.829,0,0,0,.815-.858v-8.75a.847.847,0,0,0-.815-.942Zm6.862,5.833h0c-.1-.025-1.736-1.059-3.32-2.059-1.176-.742-2.392-1.51-2.812-1.758a.37.37,0,0,1-.3-.344.316.316,0,0,1,.344-.343c.129,0,5.1,3.129,5.4,3.345l.771.471c.125-.083.242-.157.354-.229s.242-.154.375-.242c.55-.367,5.152-3.345,5.276-3.345a.315.315,0,0,1,.343.343c0,.188-.327.374-.615.537l-.113.064c-1.182.72-2.38,1.49-3.539,2.234-.537.345-1.146.736-1.737,1.111A.82.82,0,0,1-5490.6,403.126Z" transform="translate(6476.5 2076)"/>
  </g>
</svg>
