<svg xmlns="http://www.w3.org/2000/svg" viewBox="0 0 30.391 30.39">
  <defs>
    <style>
      .cls-1 {
        fill: #5db4d3;
      }
    </style>
  </defs>
  <g id="Group_1581" data-name="Group 1581" transform="translate(-1017.724 -2463.227)">
    <path id="Subtraction_1" data-name="Subtraction 1" class="cls-1" d="M-5490.8,417.391a15.1,15.1,0,0,1-10.748-4.448A15.1,15.1,0,0,1-5506,402.2a15.1,15.1,0,0,1,4.448-10.747A15.1,15.1,0,0,1-5490.8,387a15.1,15.1,0,0,1,10.747,4.448,15.1,15.1,0,0,1,4.447,10.747,15.128,15.128,0,0,1-2.621,8.54,15.17,15.17,0,0,1-6.748,5.5V405.952h3.8l.549-4.39h-4.347v-2.829c0-1.118.266-2.153,2.194-2.153h2.321v-3.924c-.271-.027-1.718-.169-3.418-.169a5.648,5.648,0,0,0-4.095,1.5,5.927,5.927,0,0,0-1.561,4.321v3.25h-3.8v4.39h3.8v11.387C-5489.96,417.374-5490.386,417.391-5490.8,417.391Z" transform="translate(6523.725 2076.227)"/>
  </g>
</svg>
