<svg id="Layer_1" data-name="Layer 1" xmlns="http://www.w3.org/2000/svg" viewBox="0 0 40 40"><defs><style>.cls-1{fill:#1f6193;}</style></defs><title>google-icon</title><g id="Group_1424" data-name="Group 1424"><path id="Subtraction_4" data-name="Subtraction 4" class="cls-1" d="M20,39.5A19.49,19.49,0,1,1,33.8,33.79,19.5,19.5,0,0,1,20,39.5ZM15.19,11.78a8.34,8.34,0,0,0,.05,16.67,7.54,7.54,0,0,0,6-2.49,9.58,9.58,0,0,0,1.88-7.42h-7.9v3.2h4.44C19,23.72,18,25,15.25,25a4.72,4.72,0,0,1-3.43-1.44,5,5,0,0,1,0-7,4.81,4.81,0,0,1,6.62-.27c.26-.26.41-.44.58-.62h0c.29-.33.65-.75,1.74-1.8A8.16,8.16,0,0,0,15.19,11.78Zm12.88,9v2.93h2.06V20.77H33V18.71H30.13V15.83H28.07v2.88H25.15v2.06Z"/></g></svg>