<svg xmlns="http://www.w3.org/2000/svg" viewBox="0 0 30.649 30.647">
  <defs>
    <style>
      .cls-1 {
        fill: #5db4d3;
      }
    </style>
  </defs>
  <path id="Exclusion_1" data-name="Exclusion 1" class="cls-1" d="M-5490.676,417.648a15.228,15.228,0,0,1-10.839-4.485A15.223,15.223,0,0,1-5506,402.325a15.226,15.226,0,0,1,4.486-10.839A15.226,15.226,0,0,1-5490.676,387a15.226,15.226,0,0,1,10.838,4.485,15.224,15.224,0,0,1,4.486,10.839,15.222,15.222,0,0,1-4.486,10.838A15.227,15.227,0,0,1-5490.676,417.648Zm-3.789-21.794a6.554,6.554,0,0,0-4.539,1.975,6.56,6.56,0,0,0-1.889,4.624,6.5,6.5,0,0,0,6.47,6.514,5.934,5.934,0,0,0,4.734-1.954,7.5,7.5,0,0,0,1.481-5.837h-6.215v2.512h3.492a3.228,3.228,0,0,1-3.492,2.6,3.717,3.717,0,0,1-2.691-1.139,3.9,3.9,0,0,1-1.1-2.735,3.9,3.9,0,0,1,1.1-2.736,3.717,3.717,0,0,1,2.691-1.139,3.637,3.637,0,0,1,2.512.937c.2-.2.318-.335.452-.489l0,0c.229-.262.514-.589,1.375-1.422a6.425,6.425,0,0,0-4.384-1.7Zm7.832,5.45v1.617h2.3v2.3h1.617v-2.3h2.257V401.3h-2.257v-2.257h-1.617V401.3Z" transform="translate(5506 -387)"/>
</svg>
