<svg id="Layer_1" data-name="Layer 1" xmlns="http://www.w3.org/2000/svg" viewBox="0 0 40 40"><defs><style>.cls-1{fill:#1f6193;}</style></defs><title>twitter-icon</title><path id="Subtraction_5" data-name="Subtraction 5" class="cls-1" d="M20,39.5A19.49,19.49,0,1,1,38,12.41,19.21,19.21,0,0,1,39.5,20,19.65,19.65,0,0,1,38,27.6a19.45,19.45,0,0,1-4.18,6.19A19.43,19.43,0,0,1,20,39.5ZM7,27.91H7a15,15,0,0,0,8.18,2.38,14.69,14.69,0,0,0,10.87-4.5,15.81,15.81,0,0,0,4.3-11.37,12,12,0,0,0,2.7-2.76,11.67,11.67,0,0,1-3.08.81,5.15,5.15,0,0,0,2.32-2.92,10.94,10.94,0,0,1-3.41,1.3A5.36,5.36,0,0,0,25,9.17a5.29,5.29,0,0,0-5.14,6.55,14.88,14.88,0,0,1-6.17-1.65,15.32,15.32,0,0,1-4.83-3.93,5.28,5.28,0,0,0,1.63,7.1A5.09,5.09,0,0,1,8,16.59,5.19,5.19,0,0,0,9.2,20a5.42,5.42,0,0,0,3.11,1.93,5.16,5.16,0,0,1-1.41.2,4.5,4.5,0,0,1-1-.1,5.36,5.36,0,0,0,5,3.69A10.65,10.65,0,0,1,8.28,28,10.86,10.86,0,0,1,7,27.91Z"/></svg>