<svg xmlns="http://www.w3.org/2000/svg" viewBox="0 0 30.881 30.88">
  <defs>
    <style>
      .cls-1 {
        fill: #5db4d3;
      }
    </style>
  </defs>
  <g id="Group_1580" data-name="Group 1580" transform="translate(-1064.12 -2463.227)">
    <path id="Exclusion_2" data-name="Exclusion 2" class="cls-1" d="M-5490.56,417.88a15.34,15.34,0,0,1-10.92-4.519,15.338,15.338,0,0,1-4.521-10.92,15.34,15.34,0,0,1,4.521-10.921A15.339,15.339,0,0,1-5490.56,387a15.34,15.34,0,0,1,10.921,4.519,15.339,15.339,0,0,1,4.52,10.921,15.337,15.337,0,0,1-4.52,10.92A15.341,15.341,0,0,1-5490.56,417.88Zm-10.293-9.178h0a11.891,11.891,0,0,0,6.476,1.886,11.611,11.611,0,0,0,8.6-3.562,12.489,12.489,0,0,0,3.4-9,9.494,9.494,0,0,0,2.145-2.187,9.173,9.173,0,0,1-2.445.643,4.106,4.106,0,0,0,1.844-2.316,8.516,8.516,0,0,1-2.7,1.029,4.272,4.272,0,0,0-3.088-1.329,4.17,4.17,0,0,0-3.294,1.6,4.178,4.178,0,0,0-.781,3.588,11.814,11.814,0,0,1-4.883-1.307,12.055,12.055,0,0,1-3.823-3.109,4.176,4.176,0,0,0,1.288,5.618,4.007,4.007,0,0,1-1.93-.515,4.161,4.161,0,0,0,.922,2.681,4.312,4.312,0,0,0,2.466,1.522,3.851,3.851,0,0,1-1.116.16,3.953,3.953,0,0,1-.771-.075,4.281,4.281,0,0,0,3.947,2.917,8.431,8.431,0,0,1-5.254,1.816A8.8,8.8,0,0,1-5500.854,408.7Z" transform="translate(6570.12 2076.227)"/>
  </g>
</svg>
