<svg xmlns="http://www.w3.org/2000/svg" viewBox="0 0 48 48.001">
  <defs>
    <style>
      .cls-1 {
        fill: #dbdbdb;
      }
    </style>
  </defs>
  <path id="Exclusion_1" data-name="Exclusion 1" class="cls-1" d="M1206.5,1890.5a23.923,23.923,0,1,1,9.342-1.886A23.851,23.851,0,0,1,1206.5,1890.5Zm.232-21.842A12.764,12.764,0,0,0,1194,1880.321a1.136,1.136,0,0,0,1.245,1.1h22.976a1.136,1.136,0,0,0,1.245-1.1,12.807,12.807,0,0,0-12.733-11.662Zm.008-16.006a7.153,7.153,0,0,0-6.962,8.792,7.068,7.068,0,0,0,2.551,3.988,7.149,7.149,0,0,0,11.361-7.273,7.07,7.07,0,0,0-2.552-3.987A7.179,7.179,0,0,0,1206.741,1852.652Z" transform="translate(-1182.5 -1842.5)"/>
</svg>
