<svg xmlns="http://www.w3.org/2000/svg" viewBox="0 0 27.399 27.4">
  <defs>
    <style>
      .cls-1 {
        fill: #fff;
      }
    </style>
  </defs>
  <path id="Path_261" data-name="Path 261" class="cls-1" d="M27.4,12.687v2.1a.6.6,0,0,0-.022.2,10.5,10.5,0,0,1-.262,1.66A13.833,13.833,0,0,1,24.8,21.815a14.358,14.358,0,0,1-2.294,2.446,12.432,12.432,0,0,1-2.36,1.594,14.126,14.126,0,0,1-3.736,1.332c-.546.109-1.114.175-1.661.24h-2.1a16.5,16.5,0,0,1-1.814-.284,13.506,13.506,0,0,1-6.773-3.669A12.837,12.837,0,0,1,1.529,20.09,12.972,12.972,0,0,1,.24,16.443c-.109-.524-.175-1.07-.24-1.594v-2.14c.044-.393.109-.786.153-1.157a12.884,12.884,0,0,1,1.4-4.171A13.765,13.765,0,0,1,12.542.087a13.334,13.334,0,0,1,4.064.24,13.848,13.848,0,0,1,5.178,2.315A13.671,13.671,0,0,1,24.974,5.9a13.177,13.177,0,0,1,2.141,4.913A18.564,18.564,0,0,1,27.4,12.687ZM10.073,14.674H7.6c-.131,0-.24.022-.24.2a25.58,25.58,0,0,0,.393,3.166.272.272,0,0,0,.306.24h4.414c.218,0,.284-.087.262-.284V14.958c0-.262-.022-.284-.284-.284ZM10.051,12.8h2.4c.284,0,.306,0,.306-.284V9.5c0-.284,0-.284-.306-.284H8.106a.328.328,0,0,0-.371.306,24.547,24.547,0,0,0-.393,3.1c0,.2.087.218.24.218C8.434,12.8,9.242,12.8,10.051,12.8Zm7.276,0H19.8c.131,0,.24,0,.24-.2a25.93,25.93,0,0,0-.393-3.188.272.272,0,0,0-.306-.24H14.923c-.218,0-.284.066-.284.284V12.49c0,.284.022.284.284.284C15.732,12.818,16.518,12.8,17.327,12.8Zm.022,1.878h-2.4c-.306,0-.306,0-.306.328v2.97c0,.306,0,.306.306.306h4.326c.24,0,.328-.066.371-.306a19.924,19.924,0,0,0,.371-3.014c.022-.262,0-.284-.262-.284Zm-4.588-10V2.336c0-.284-.022-.306-.284-.2a5.428,5.428,0,0,0-2.36,1.834A11.053,11.053,0,0,0,8.456,7.053c-.087.262-.087.284.175.284h3.824c.262,0,.284-.022.284-.284C12.76,6.245,12.76,5.459,12.76,4.673Zm1.879-.022V6.987c0,.306.022.306.306.306h3.78c.306,0,.306-.022.2-.306A11.522,11.522,0,0,0,17.261,3.93,5.272,5.272,0,0,0,14.9,2.1c-.24-.066-.262-.044-.262.2ZM12.76,22.819V20.483c0-.284-.022-.306-.306-.306H8.674c-.284,0-.306.022-.2.306a11.329,11.329,0,0,0,1.639,3.035,5.476,5.476,0,0,0,2.36,1.856c.284.109.306.087.306-.2C12.76,24.392,12.76,23.605,12.76,22.819Zm1.879,0v2.358c0,.262.022.284.284.2a5.212,5.212,0,0,0,2.316-1.791,11.619,11.619,0,0,0,1.726-3.145c.087-.218.066-.24-.175-.24H14.923c-.218,0-.284.087-.284.284ZM3.671,12.8H5.244c.175,0,.24-.066.24-.24a21.667,21.667,0,0,1,.371-3.145c.022-.175-.022-.24-.2-.24H2.95a.259.259,0,0,0-.284.2,11.837,11.837,0,0,0-.743,3.123c-.022.284-.022.284.262.284C2.688,12.8,3.19,12.8,3.671,12.8Zm.022,1.878H2.119c-.153,0-.2.044-.2.2a12.52,12.52,0,0,0,.743,3.188.29.29,0,0,0,.328.218H5.637c.262,0,.262-.022.218-.284a17.7,17.7,0,0,1-.35-3.035c0-.2-.087-.284-.284-.284Zm19.4,3.6H24.45a.259.259,0,0,0,.284-.2,11.481,11.481,0,0,0,.765-3.21c.022-.175-.044-.218-.2-.218H22.178a.209.209,0,0,0-.24.24,18.746,18.746,0,0,1-.371,3.123c-.044.175.022.24.2.24C22.178,18.277,22.636,18.277,23.1,18.277Zm.634-5.481h1.529c.175,0,.262-.044.24-.24a12.928,12.928,0,0,0-.743-3.145.31.31,0,0,0-.328-.218H21.806c-.284,0-.284.022-.24.284a17.951,17.951,0,0,1,.35,3.057c0,.2.087.262.284.262ZM8.39,3.21c0-.022-.022-.022-.022-.044-.066.022-.131.066-.2.087A12.069,12.069,0,0,0,3.889,7.075c-.044.044-.109.109-.066.175s.109.044.175.044H6.14a.314.314,0,0,0,.35-.262A15.216,15.216,0,0,1,7.866,4Q8.128,3.635,8.39,3.21Zm0,21.051a2.649,2.649,0,0,0-.218-.306,15.445,15.445,0,0,1-1.682-3.538c-.066-.175-.153-.262-.35-.24H4.02c-.066,0-.153-.022-.2.044s.044.131.087.2a11.932,11.932,0,0,0,3.5,3.363A4.548,4.548,0,0,0,8.39,24.261Zm10.619,0a3.947,3.947,0,0,0,.808-.393A11.931,11.931,0,0,0,23.51,20.4c.044-.066.109-.109.066-.2-.044-.066-.131-.044-.175-.044H21.3a.344.344,0,0,0-.393.284,14.688,14.688,0,0,1-1.639,3.45C19.162,24.02,19.1,24.151,19.009,24.261Zm.022-21.095c0,.044-.022.044,0,.044.066.109.153.218.218.328a14.874,14.874,0,0,1,1.682,3.516.306.306,0,0,0,.328.24h2.119c.066,0,.175.022.2-.044.044-.087-.044-.153-.087-.218a11.627,11.627,0,0,0-2.731-2.839A14.984,14.984,0,0,0,19.031,3.166Z" transform="translate(0 -0.027)"/>
</svg>
