<svg xmlns="http://www.w3.org/2000/svg" viewBox="0 0 8.998 8.998">
  <defs>
    <style>
      .cls-1 {
        fill: #154569;
      }
    </style>
  </defs>
  <path id="Union_152" data-name="Union 152" class="cls-1" d="M-10807.667-16885.779l-2.211-2.209-2.211,2.209a1.344,1.344,0,0,1-1.9,0,1.333,1.333,0,0,1,0-1.893l2.21-2.211-2.21-2.207a1.333,1.333,0,0,1,0-1.893,1.34,1.34,0,0,1,1.9,0l2.209,2.205,2.213-2.213a1.344,1.344,0,0,1,1.9,0,1.35,1.35,0,0,1,0,1.9l-2.211,2.207,2.211,2.211a1.34,1.34,0,0,1,0,1.893,1.33,1.33,0,0,1-.948.4A1.33,1.33,0,0,1-10807.667-16885.779Z" transform="translate(10814.378 16894.381)"/>
</svg>
