<svg xmlns="http://www.w3.org/2000/svg" viewBox="0 0 15.004 8.535">
  <defs>
    <style>
      .cls-1 {
        fill: #fff;
      }
    </style>
  </defs>
  <path id="Union_336" data-name="Union 336" class="cls-1" d="M-12774.963-12872.957a1.3,1.3,0,0,1-1.176-.352l-5.949-5.945a1.3,1.3,0,0,1,0-1.83,1.293,1.293,0,0,1,1.833,0l5.291,5.291,5.294-5.294a1.3,1.3,0,0,1,1.83,0,1.3,1.3,0,0,1,0,1.829l-5.945,5.949a1.3,1.3,0,0,1-.917.378A1.305,1.305,0,0,1-12774.963-12872.957Z" transform="translate(12782.466 12881.465)"/>
</svg>
