<svg xmlns="http://www.w3.org/2000/svg" viewBox="0 0 15.003 8.536">
  <defs>
    <style>
      .cls-1 {
        fill: #4f4f4f;
      }
    </style>
  </defs>
  <path id="Union_333" data-name="Union 333" class="cls-1" d="M-11284.97-14077.956a1.294,1.294,0,0,1-1.168-.351l-5.947-5.946a1.3,1.3,0,0,1,0-1.832,1.293,1.293,0,0,1,1.828,0l5.292,5.293,5.293-5.293a1.3,1.3,0,0,1,1.831,0,1.3,1.3,0,0,1,0,1.832l-5.946,5.946a1.294,1.294,0,0,1-.916.379A1.3,1.3,0,0,1-11284.97-14077.956Z" transform="translate(11292.464 14086.463)"/>
</svg>
