<svg xmlns="http://www.w3.org/2000/svg" viewBox="0 0 15.002 8.535">
  <defs>
    <style>
      .cls-1 {
        fill: #fff;
      }
    </style>
  </defs>
  <path id="Union_334" data-name="Union 334" class="cls-1" d="M-11279.67-14078.309l-5.292-5.292-5.293,5.292a1.294,1.294,0,0,1-1.831,0,1.3,1.3,0,0,1,0-1.831l5.946-5.946a1.293,1.293,0,0,1,1.183-.352,1.294,1.294,0,0,1,1.169.352l5.949,5.946a1.3,1.3,0,0,1,0,1.831,1.289,1.289,0,0,1-.915.379A1.29,1.29,0,0,1-11279.67-14078.309Z" transform="translate(11292.465 14086.465)"/>
</svg>
