<svg id="Group_784" data-name="Group 784" xmlns="http://www.w3.org/2000/svg" viewBox="0 0 70.8 70.8">
  <defs>
    <style>
      .cls-1 {
        fill: #5db4d3;
      }
    </style>
  </defs>
  <g id="Group_1132" data-name="Group 1132">
    <path id="Path_525" data-name="Path 525" class="cls-1" d="M35.4,0A35.4,35.4,0,1,0,70.8,35.4,35.465,35.465,0,0,0,35.4,0Zm0,67.8A32.4,32.4,0,1,1,67.8,35.4,32.457,32.457,0,0,1,35.4,67.8Z"/>
    <path id="Path_526" data-name="Path 526" class="cls-1" d="M52.2,22.7c-.3-.4-.2-.7,0-1.2.9-1.8,0-3.4-2-3.4H40a2.086,2.086,0,0,1-1.8-.7,3.9,3.9,0,0,0-5.7.1,1.816,1.816,0,0,1-1.4.6H20.4a2.077,2.077,0,0,0-2,3.2,1.5,1.5,0,0,1-.1,1.7c-2.1,3.4-4.2,6.8-6.4,10.2a2.17,2.17,0,0,0-.2,2.2,9.072,9.072,0,0,0,8.4,5.9,8.965,8.965,0,0,0,8.4-6,2.232,2.232,0,0,0-.2-2.1c-2-3.2-3.9-6.5-5.9-9.8-.5-.9-.5-1,.5-1h8c1.2,0,1.6.3,1.6,1.5V48.1c0,.8-.3,1.1-1.1,1H25.5c-2.9,0-3.1.3-3.1,3.2,0,1.4.5,2.1,2,2.1H46.9c1.5,0,2-.6,1.9-2.1v-.7c0-2-.4-2.4-2.5-2.4H39.4c-.9,0-1.1-.3-1.1-1.1v-24c0-1.3.3-1.6,1.5-1.6h8c1.1,0,1.2.1.6,1-1.9,3.2-3.9,6.5-5.8,9.7a2.116,2.116,0,0,0-.4,1.9,9,9,0,0,0,17.2-.3v-.9C57,30.2,54.6,26.5,52.2,22.7ZM25.7,33.3c.4.7.1.8-.5.8H15c-.7,0-1-.1-.5-.8,1.8-2.8,3.5-5.6,5.2-8.4.4-.6.6-.7,1,0C22.3,27.7,24,30.5,25.7,33.3Zm30.2.8H45.6c-.7,0-.9-.2-.5-.9,1.7-2.8,3.4-5.7,5.1-8.5.3-.5.5-.5.8,0l5.4,8.7C56.8,34.1,56.4,34.1,55.9,34.1Z"/>
  </g>
</svg>
