<svg xmlns="http://www.w3.org/2000/svg" viewBox="0 0 70.8 70.8">
  <defs>
    <style>
      .cls-1 {
        fill: #5db4d3;
      }
    </style>
  </defs>
  <g id="Group_1122" data-name="Group 1122" transform="translate(-469 -223)">
    <g id="Group_750" data-name="Group 750" transform="translate(469 223)">
      <path id="Path_505" data-name="Path 505" class="cls-1" d="M35.4,0A35.4,35.4,0,1,0,70.8,35.4,35.465,35.465,0,0,0,35.4,0Zm0,67.8A32.4,32.4,0,1,1,67.8,35.4,32.457,32.457,0,0,1,35.4,67.8Z"/>
      <path id="Path_506" data-name="Path 506" class="cls-1" d="M29.9,47.4a43.382,43.382,0,0,1-8-6.1c-.7-.7-1.7-1.4-2.6-.5s-.4,2,.2,2.9a9.428,9.428,0,0,0,1,1c.5.5,1,1.1,1.5,1.6.2.3.6.6.3,1s-.8.1-1.1,0a5.251,5.251,0,0,1-2.3-1.9c-1.6-2.4-3.2-4.6-3-7.8.1-1-.1-2.7-1.6-2.7-1.5.1-1.4,1.8-1.4,2.9.1,7.3,3.3,12.8,9.9,16.1,2.7,1.4,4.3,3.3,4.3,6.4a1.326,1.326,0,0,0,1.5,1.5h1.7c3.1,0,3.1,0,3.5-3.1a21.662,21.662,0,0,0,.1-3.6C33.8,52,32.8,49.2,29.9,47.4Z"/>
      <path id="Path_507" data-name="Path 507" class="cls-1" d="M56.6,34.9c-.8,0-1.1.7-1.3,1.4a15.439,15.439,0,0,0-.4,3c-.3,3.2-2.2,5.6-4.5,7.7a9.292,9.292,0,0,1-1,.5c-.3.1-.6.2-.8-.1s0-.5.2-.7c.7-.7,1.3-1.5,2-2.2,1.2-1.2,1.7-2.8.9-3.5-1.4-1.1-2.4,0-3.3.8a25.946,25.946,0,0,1-5.5,4.4c-4.3,2.2-6.3,5.7-6.1,8.8.4,8.2.3,6.8,4.8,7,1.5.1,2.2-.4,2.2-2a5.247,5.247,0,0,1,3.3-5.3A18.78,18.78,0,0,0,56.2,46c1.6-2.9,1.7-6.1,1.6-9.3C57.8,35.7,57.5,34.9,56.6,34.9Z"/>
      <path id="Path_508" data-name="Path 508" class="cls-1" d="M50.6,24.7h0a11.019,11.019,0,0,0,.2-1.8,8.493,8.493,0,0,0-8.5-8.5,8.712,8.712,0,0,0-6.9,3.5,8.517,8.517,0,0,0-15.4,5,7.786,7.786,0,0,0,.9,3.7c1.2,2.9,4.7,8.6,14.6,14.3h0C49.5,32.9,50.6,24.7,50.6,24.7Z"/>
    </g>
  </g>
</svg>
