<svg xmlns="http://www.w3.org/2000/svg" viewBox="0 0 70.8 70.8">
  <defs>
    <style>
      .cls-1 {
        fill: #5db4d3;
      }
    </style>
  </defs>
  <path id="Path_510" data-name="Path 510" class="cls-1" d="M35.4,0A35.4,35.4,0,1,0,70.8,35.4,35.465,35.465,0,0,0,35.4,0Zm0,67.8A32.4,32.4,0,1,1,67.8,35.4,32.457,32.457,0,0,1,35.4,67.8Zm8.5-29.3a9.04,9.04,0,0,1,.7,3.7,7.525,7.525,0,0,1-1.9,5.1,10.264,10.264,0,0,1-5.2,3V55H32.7V50.6a14.008,14.008,0,0,1-6.6-2.2l2-4.8a10.716,10.716,0,0,0,6.3,2.2q4.8,0,4.8-3.3A4.847,4.847,0,0,0,38,39.4a13.31,13.31,0,0,0-4.6-3.1,21.2,21.2,0,0,1-4.6-2.8,7.72,7.72,0,0,1-1.9-2.7,9.48,9.48,0,0,1-.7-3.5,7.681,7.681,0,0,1,1.8-5,9.069,9.069,0,0,1,4.8-2.9V15.6h4.8v3.6a10.66,10.66,0,0,1,5.7,1.9l-1.6,4.7a9.835,9.835,0,0,0-6-2,3.945,3.945,0,0,0-2.9,1,3.317,3.317,0,0,0-1,2.5c0,1.7,1.9,3.6,5.8,5.4A17.653,17.653,0,0,1,42,35.5,12.807,12.807,0,0,1,43.9,38.5Z"/>
</svg>
