<svg xmlns="http://www.w3.org/2000/svg" viewBox="0 0 70.8 70.8">
  <defs>
    <style>
      .cls-1 {
        fill: #5db4d3;
      }
    </style>
  </defs>
  <path id="Path_509" data-name="Path 509" class="cls-1" d="M35.4,0A35.4,35.4,0,1,0,70.8,35.4,35.465,35.465,0,0,0,35.4,0Zm0,67.8A32.4,32.4,0,1,1,67.8,35.4,32.457,32.457,0,0,1,35.4,67.8Zm-.9-29.9a22.5,22.5,0,0,0-.8,2.4h-10a.215.215,0,0,1-.2-.2V38a.215.215,0,0,1,.2-.2H34.5Zm-1.1,5.9a10.039,10.039,0,0,0,.4,2.4h-10a.215.215,0,0,1-.2-.2V43.9a.215.215,0,0,1,.2-.2h9.6Zm6.3,10.6H21a4.7,4.7,0,0,1-4.7-4.7V26.2a1.99,1.99,0,0,1,.7-1.6L25.8,16a1.974,1.974,0,0,1,1.4-.6H45a4.7,4.7,0,0,1,4.7,4.7v10a13.575,13.575,0,0,0-2.9-.3,5.7,5.7,0,0,0-1.3.1V21a1.324,1.324,0,0,0-1.3-1.3H28.8v6.1A2.22,2.22,0,0,1,26.6,28H20.7V48.8A1.324,1.324,0,0,0,22,50.1H35.5A12.352,12.352,0,0,0,39.7,54.4ZM41,26.6H33.3a.215.215,0,0,1-.2-.2V24.3a.215.215,0,0,1,.2-.2H41a.215.215,0,0,1,.2.2v2.1C41.1,26.6,41.1,26.6,41,26.6ZM46.7,32a11,11,0,1,0,11,11A10.968,10.968,0,0,0,46.7,32Zm6,8.3L47,47.9a.83.83,0,0,1-1.2.2l-.4-.3h-.1l-4-3a.83.83,0,0,1-.2-1.2l1-1.3a.83.83,0,0,1,1.2-.2L45.8,44l4.3-5.6a.83.83,0,0,1,1.2-.2l1.3,1A.772.772,0,0,1,52.7,40.3ZM36.2,34.9H23.7a.215.215,0,0,1-.2-.2V32.6a.215.215,0,0,1,.2-.2H38.6A28.34,28.34,0,0,0,36.2,34.9Z" transform="translate(0 0)"/>
</svg>
