<svg xmlns="http://www.w3.org/2000/svg" viewBox="0 0 70.8 70.8">
  <defs>
    <style>
      .cls-1 {
        fill: #5db4d3;
      }
    </style>
  </defs>
  <path id="Path_528" data-name="Path 528" class="cls-1" d="M35.4,0A35.4,35.4,0,1,0,70.8,35.4,35.465,35.465,0,0,0,35.4,0Zm0,67.8A32.4,32.4,0,1,1,67.8,35.4,32.457,32.457,0,0,1,35.4,67.8ZM29.9,16.5H20.2a3.757,3.757,0,0,0-3.7,3.7V30a3.757,3.757,0,0,0,3.7,3.7h9.7A3.757,3.757,0,0,0,33.6,30V20.3A3.778,3.778,0,0,0,29.9,16.5Zm-.6,9.1a.789.789,0,0,1-.8.8H26.2v2.3a.789.789,0,0,1-.8.8h-1a.789.789,0,0,1-.8-.8V26.4H21.3a.789.789,0,0,1-.8-.8v-1a.789.789,0,0,1,.8-.8h2.3V21.5a.789.789,0,0,1,.8-.8h1a.789.789,0,0,1,.8.8v2.3h2.3a.789.789,0,0,1,.8.8Zm.6,11.5H20.2a3.757,3.757,0,0,0-3.7,3.7v9.7a3.757,3.757,0,0,0,3.7,3.7h9.7a3.757,3.757,0,0,0,3.7-3.7V40.8A3.757,3.757,0,0,0,29.9,37.1ZM28.4,47.3a.785.785,0,0,1,0,1.1l-.7.7a.785.785,0,0,1-1.1,0L25,47.5l-1.6,1.6a.785.785,0,0,1-1.1,0l-.7-.7a.785.785,0,0,1,0-1.1l1.6-1.6-1.6-1.6a.785.785,0,0,1,0-1.1l.7-.7a.785.785,0,0,1,1.1,0L25,43.9l1.6-1.6a.785.785,0,0,1,1.1,0l.7.7a.785.785,0,0,1,0,1.1l-1.6,1.6ZM50.6,16.5H40.9a3.757,3.757,0,0,0-3.7,3.7V30a3.757,3.757,0,0,0,3.7,3.7h9.7A3.757,3.757,0,0,0,54.3,30V20.3A3.714,3.714,0,0,0,50.6,16.5Zm-.5,9.1a.789.789,0,0,1-.8.8H42.1a.789.789,0,0,1-.8-.8v-1a.789.789,0,0,1,.8-.8h7.2a.789.789,0,0,1,.8.8Zm.5,11.5H40.9a3.757,3.757,0,0,0-3.7,3.7v9.7a3.757,3.757,0,0,0,3.7,3.7h9.7a3.757,3.757,0,0,0,3.7-3.7V40.8A3.691,3.691,0,0,0,50.6,37.1Zm-.5,11.5a.789.789,0,0,1-.8.8H42.1a.789.789,0,0,1-.8-.8v-1a.789.789,0,0,1,.8-.8h7.2a.789.789,0,0,1,.8.8Zm0-4.8a.789.789,0,0,1-.8.8H42.1a.789.789,0,0,1-.8-.8v-1a.789.789,0,0,1,.8-.8h7.2a.789.789,0,0,1,.8.8Z"/>
</svg>
