<svg xmlns="http://www.w3.org/2000/svg" viewBox="0 0 70.8 70.8">
  <defs>
    <style>
      .cls-1 {
        fill: #5db4d3;
      }
    </style>
  </defs>
  <path id="Path_527" data-name="Path 527" class="cls-1" d="M35.4,0A35.4,35.4,0,1,0,70.8,35.4,35.465,35.465,0,0,0,35.4,0Zm0,67.8A32.4,32.4,0,1,1,67.8,35.4,32.457,32.457,0,0,1,35.4,67.8ZM30.6,33.5A2.5,2.5,0,1,1,28.1,31,2.476,2.476,0,0,1,30.6,33.5Zm7.4,0A2.5,2.5,0,1,1,35.5,31,2.476,2.476,0,0,1,38,33.5Zm7.4,0A2.5,2.5,0,1,1,42.9,31,2.476,2.476,0,0,1,45.4,33.5Zm5-17.3h-30a4.481,4.481,0,0,0-4.5,4.5V45a4.481,4.481,0,0,0,4.5,4.5H39.8l3.5,2.9a2.052,2.052,0,0,0,2.9,0l3.5-2.9h.6A4.481,4.481,0,0,0,54.8,45V20.8A4.484,4.484,0,0,0,50.4,16.2Zm.2,27.9a1.216,1.216,0,0,1-1.2,1.2H48.2l-3.5,3.3-3.8-3.3H21.4a1.216,1.216,0,0,1-1.2-1.2V21.7a1.216,1.216,0,0,1,1.2-1.2h28a1.216,1.216,0,0,1,1.2,1.2V44.1Z"/>
</svg>
