<svg xmlns="http://www.w3.org/2000/svg" viewBox="0 0 70.8 70.8">
  <defs>
    <style>
      .cls-1 {
        fill: #5db4d3;
      }
    </style>
  </defs>
  <g id="Group_1579" data-name="Group 1579" transform="translate(-848 -282)">
    <g id="Group_1443" data-name="Group 1443" transform="translate(848 282)">
      <g id="Group_1132" data-name="Group 1132">
        <path id="Path_525" data-name="Path 525" class="cls-1" d="M35.4,0A35.4,35.4,0,1,0,70.8,35.4,35.465,35.465,0,0,0,35.4,0Zm0,67.8A32.4,32.4,0,1,1,67.8,35.4,32.457,32.457,0,0,1,35.4,67.8Z"/>
      </g>
    </g>
    <path id="Union_335" data-name="Union 335" class="cls-1" d="M-5489.5,45.91c-.842,0-1.475-.782-2.047-1.655-1.144-1.745-2.258-3.492-3.4-5.239-2.71-4.215-5.509-8.549-8.309-12.795a15.94,15.94,0,0,1-2.739-9.423,16.741,16.741,0,0,1,4.846-11.831A16.8,16.8,0,0,1-5489.285,0a16.7,16.7,0,0,1,11.892,4.817,16.759,16.759,0,0,1,5.027,11.982,16.4,16.4,0,0,1-2.919,9.663c-2.59,3.795-5.208,7.678-7.737,11.41-1.445,2.109-2.891,4.245-4.336,6.383-.6.843-1.265,1.655-2.107,1.655Zm-11.379-35.283a12.4,12.4,0,0,0,.3,13.035c2.2,3.643,4.576,7.256,6.894,10.778,1.325,2.017,2.68,4.094,4,6.171.12.151.18.271.24.332.061-.091.151-.181.271-.362,1.476-2.228,3.04-4.485,4.516-6.654,2.138-3.16,4.365-6.412,6.5-9.663a12.7,12.7,0,0,0,.6-13.668,12.493,12.493,0,0,0-11.23-6.984C-5494.343,3.643-5498.317,5.931-5500.876,10.628Zm11.833,15.806a9.073,9.073,0,0,1-6.473-2.59,9.253,9.253,0,0,1-2.65-6.623,8.837,8.837,0,0,1,2.62-6.292,9.109,9.109,0,0,1,6.412-2.59h.061a9.048,9.048,0,0,1,8.881,9.122,9.028,9.028,0,0,1-8.73,8.972Zm-5.57-9.123a5.293,5.293,0,0,0,1.535,3.884,5.482,5.482,0,0,0,3.914,1.6,5.4,5.4,0,0,0,5.45-5.389,5.3,5.3,0,0,0-1.506-3.764,5.465,5.465,0,0,0-3.883-1.595A5.312,5.312,0,0,0-5494.614,17.31Z" transform="translate(6373.044 295)"/>
  </g>
</svg>
