<svg id="Group_1121" data-name="Group 1121" xmlns="http://www.w3.org/2000/svg" viewBox="0 0 70.8 70.8">
  <defs>
    <style>
      .cls-1 {
        fill: #5db4d3;
      }
    </style>
  </defs>
  <path id="Path_500" data-name="Path 500" class="cls-1" d="M36.8,54.9c.4,8.2.3,6.8,4.8,7,1.5.1,2.2-.4,2.2-2a5.247,5.247,0,0,1,3.3-5.3,18.78,18.78,0,0,0,9.1-8.7c1.6-2.9,1.7-6.1,1.6-9.3A1.44,1.44,0,0,0,56.5,35c-.8,0-1.1.7-1.3,1.4a15.439,15.439,0,0,0-.4,3c-.3,3.2-2.2,5.6-4.5,7.7a9.292,9.292,0,0,1-1,.5c-.3.1-.6.2-.8-.1s0-.5.2-.7c.7-.7,1.3-1.5,2-2.2,1.2-1.2,1.7-2.8.9-3.5-1.4-1.1-2.4,0-3.3.8a25.946,25.946,0,0,1-5.5,4.4C38.5,48.3,36.6,51.8,36.8,54.9Zm-6.5,7c3.1,0,3.1,0,3.5-3.1a21.662,21.662,0,0,0,.1-3.6c-.2-3.2-1.1-6-4-7.8a43.382,43.382,0,0,1-8-6.1c-.7-.7-1.7-1.4-2.6-.5s-.4,2,.2,2.9a9.428,9.428,0,0,0,1,1c.5.5,1,1.1,1.5,1.6.2.3.6.6.3,1s-.8.1-1.1,0a5.251,5.251,0,0,1-2.3-1.9c-1.6-2.4-3.2-4.6-3-7.8.1-1-.1-2.7-1.6-2.7-1.5.1-1.4,1.8-1.4,2.9.1,7.3,3.3,12.8,9.9,16.1,2.7,1.4,4.3,3.3,4.3,6.4a1.326,1.326,0,0,0,1.5,1.5A9.7,9.7,0,0,0,30.3,61.9Z"/>
  <path id="Path_501" data-name="Path 501" class="cls-1" d="M52.1,22.5,37.8,10a3.23,3.23,0,0,0-4.9,0L18.7,22.5a1.606,1.606,0,0,0-.5,1.1V36.8a1.538,1.538,0,0,0,1.5,1.5H28a1.538,1.538,0,0,0,1.5-1.5V32.1a3.757,3.757,0,0,1,3.7-3.7h4.6a3.757,3.757,0,0,1,3.7,3.7v4.7A1.538,1.538,0,0,0,43,38.3h8.3a1.538,1.538,0,0,0,1.5-1.5V23.6A4.129,4.129,0,0,0,52.1,22.5Z"/>
  <path id="Path_499" data-name="Path 499" class="cls-1" d="M35.4,70.8A35.4,35.4,0,1,1,70.8,35.4,35.465,35.465,0,0,1,35.4,70.8ZM35.4,3A32.4,32.4,0,1,0,67.8,35.4,32.392,32.392,0,0,0,35.4,3Z"/>
</svg>
