<svg xmlns="http://www.w3.org/2000/svg" viewBox="0 0 70.8 70.8">
  <defs>
    <style>
      .cls-1 {
        fill: #5db4d3;
      }
    </style>
  </defs>
  <g id="Group_755" data-name="Group 755" transform="translate(-211 129)">
    <g id="Group_756" data-name="Group 756" transform="translate(211 -129)">
      <path id="Path_512" data-name="Path 512" class="cls-1" d="M41.595,48.455v2.256a1.928,1.928,0,0,0,1.974,1.974H45.4a1.928,1.928,0,0,0,1.974-1.974v-22.7h1.833a1.233,1.233,0,0,0,1.269-.846,1.264,1.264,0,0,0-.141-1.551l-4.653-6.627a1.449,1.449,0,0,0-2.4,0l-4.653,6.627a1.544,1.544,0,0,0-.141,1.551,1.355,1.355,0,0,0,1.269.846h1.833V38.02c-3.243-2.4-7.473-3.384-10.857-3.948-4.794-.846-6.345-3.948-6.909-6.063H25.52a1.233,1.233,0,0,0,1.269-.846,1.264,1.264,0,0,0-.141-1.551l-4.512-6.627a1.449,1.449,0,0,0-2.4,0l-4.653,6.627a1.544,1.544,0,0,0-.141,1.551,1.656,1.656,0,0,0,1.41.846h1.974c.423,2.961,2.4,9.87,11.563,11.563C37.929,41.122,41.172,43.52,41.595,48.455Z" transform="translate(2)"/>
      <path id="Path_513" data-name="Path 513" class="cls-1" d="M35.4,0A35.4,35.4,0,1,0,70.8,35.4,35.465,35.465,0,0,0,35.4,0Zm0,67.8A32.4,32.4,0,1,1,67.8,35.4,32.457,32.457,0,0,1,35.4,67.8Z"/>
    </g>
  </g>
</svg>
