<svg id="Group_783" data-name="Group 783" xmlns="http://www.w3.org/2000/svg" xmlns:xlink="http://www.w3.org/1999/xlink" viewBox="0 0 70.8 70.8">
  <defs>
    <style>
      .cls-1 {
        fill: #5db4d3;
      }

      .cls-2 {
        filter: url(#Path_521);
      }

      .cls-3 {
        filter: url(#Path_520);
      }

      .cls-4 {
        filter: url(#Path_519);
      }

      .cls-5 {
        filter: url(#Path_518);
      }

      .cls-6 {
        filter: url(#Path_517);
      }

      .cls-7 {
        filter: url(#Path_516);
      }

      .cls-8 {
        filter: url(#Path_514);
      }
    </style>
    <filter id="Path_514" x="27.7" y="20" width="26.1" height="20.5" filterUnits="userSpaceOnUse">
      <feOffset dy="3" input="SourceAlpha"/>
      <feGaussianBlur stdDeviation="3" result="blur"/>
      <feFlood flood-opacity="0.161"/>
      <feComposite operator="in" in2="blur"/>
      <feComposite in="SourceGraphic"/>
    </filter>
    <filter id="Path_516" x="17.5" y="26.6" width="31.2" height="20.5" filterUnits="userSpaceOnUse">
      <feOffset dy="3" input="SourceAlpha"/>
      <feGaussianBlur stdDeviation="3" result="blur-2"/>
      <feFlood flood-opacity="0.161"/>
      <feComposite operator="in" in2="blur-2"/>
      <feComposite in="SourceGraphic"/>
    </filter>
    <filter id="Path_517" x="17.5" y="32.2" width="31.2" height="20.5" filterUnits="userSpaceOnUse">
      <feOffset dy="3" input="SourceAlpha"/>
      <feGaussianBlur stdDeviation="3" result="blur-3"/>
      <feFlood flood-opacity="0.161"/>
      <feComposite operator="in" in2="blur-3"/>
      <feComposite in="SourceGraphic"/>
    </filter>
    <filter id="Path_518" x="17.5" y="37.8" width="31.2" height="20.5" filterUnits="userSpaceOnUse">
      <feOffset dy="3" input="SourceAlpha"/>
      <feGaussianBlur stdDeviation="3" result="blur-4"/>
      <feFlood flood-opacity="0.161"/>
      <feComposite operator="in" in2="blur-4"/>
      <feComposite in="SourceGraphic"/>
    </filter>
    <filter id="Path_519" x="32.1" y="26.6" width="21.801" height="20.5" filterUnits="userSpaceOnUse">
      <feOffset dy="3" input="SourceAlpha"/>
      <feGaussianBlur stdDeviation="3" result="blur-5"/>
      <feFlood flood-opacity="0.161"/>
      <feComposite operator="in" in2="blur-5"/>
      <feComposite in="SourceGraphic"/>
    </filter>
    <filter id="Path_520" x="32.1" y="32.2" width="21.801" height="20.5" filterUnits="userSpaceOnUse">
      <feOffset dy="3" input="SourceAlpha"/>
      <feGaussianBlur stdDeviation="3" result="blur-6"/>
      <feFlood flood-opacity="0.161"/>
      <feComposite operator="in" in2="blur-6"/>
      <feComposite in="SourceGraphic"/>
    </filter>
    <filter id="Path_521" x="32.1" y="37.8" width="21.801" height="20.5" filterUnits="userSpaceOnUse">
      <feOffset dy="3" input="SourceAlpha"/>
      <feGaussianBlur stdDeviation="3" result="blur-7"/>
      <feFlood flood-opacity="0.161"/>
      <feComposite operator="in" in2="blur-7"/>
      <feComposite in="SourceGraphic"/>
    </filter>
  </defs>
  <g id="Group_757" data-name="Group 757">
    <g class="cls-8" transform="matrix(1, 0, 0, 1, 0, 0)">
      <path id="Path_514-2" data-name="Path 514" class="cls-1" d="M36.9,28.5h7.7a.215.215,0,0,0,.2-.2V26.2a.215.215,0,0,0-.2-.2H36.9a.215.215,0,0,0-.2.2v2.1A.215.215,0,0,0,36.9,28.5Z"/>
    </g>
    <path id="Path_515" data-name="Path 515" class="cls-1" d="M47.3,15.9H29.6a1.974,1.974,0,0,0-1.4.6L19.4,25a2.36,2.36,0,0,0-.7,1.6V50.2a4.7,4.7,0,0,0,4.7,4.7h24a4.781,4.781,0,0,0,4.7-4.8V20.6A4.847,4.847,0,0,0,47.3,15.9Zm-.9,34.7h-22a1.324,1.324,0,0,1-1.3-1.3V28.5H29a2.22,2.22,0,0,0,2.2-2.2V20.2H46.6a1.324,1.324,0,0,1,1.3,1.3v8.8l-.1,19A1.493,1.493,0,0,1,46.4,50.6Z"/>
    <g class="cls-7" transform="matrix(1, 0, 0, 1, 0, 0)">
      <path id="Path_516-2" data-name="Path 516" class="cls-1" d="M39.5,32.6H26.7a.215.215,0,0,0-.2.2v2.1a.215.215,0,0,0,.2.2H39.5a.215.215,0,0,0,.2-.2V32.8C39.7,32.6,39.6,32.6,39.5,32.6Z"/>
    </g>
    <g class="cls-6" transform="matrix(1, 0, 0, 1, 0, 0)">
      <path id="Path_517-2" data-name="Path 517" class="cls-1" d="M39.5,38.2H26.7a.215.215,0,0,0-.2.2v2.1a.215.215,0,0,0,.2.2H39.5a.215.215,0,0,0,.2-.2V38.4A.215.215,0,0,0,39.5,38.2Z"/>
    </g>
    <g class="cls-5" transform="matrix(1, 0, 0, 1, 0, 0)">
      <path id="Path_518-2" data-name="Path 518" class="cls-1" d="M39.5,43.8H26.7a.215.215,0,0,0-.2.2v2.1a.215.215,0,0,0,.2.2H39.5a.215.215,0,0,0,.2-.2V44A.215.215,0,0,0,39.5,43.8Z"/>
    </g>
    <g class="cls-4" transform="matrix(1, 0, 0, 1, 0, 0)">
      <path id="Path_519-2" data-name="Path 519" class="cls-1" d="M44.7,32.6H41.3a.215.215,0,0,0-.2.2v2.1a.215.215,0,0,0,.2.2h3.4a.215.215,0,0,0,.2-.2V32.8C44.9,32.6,44.8,32.6,44.7,32.6Z"/>
    </g>
    <g class="cls-3" transform="matrix(1, 0, 0, 1, 0, 0)">
      <path id="Path_520-2" data-name="Path 520" class="cls-1" d="M44.7,38.2H41.3a.215.215,0,0,0-.2.2v2.1a.215.215,0,0,0,.2.2h3.4a.215.215,0,0,0,.2-.2V38.4A.215.215,0,0,0,44.7,38.2Z"/>
    </g>
    <g class="cls-2" transform="matrix(1, 0, 0, 1, 0, 0)">
      <path id="Path_521-2" data-name="Path 521" class="cls-1" d="M44.7,43.8H41.3a.215.215,0,0,0-.2.2v2.1a.215.215,0,0,0,.2.2h3.4a.215.215,0,0,0,.2-.2V44A.215.215,0,0,0,44.7,43.8Z"/>
    </g>
  </g>
  <path id="Path_522" data-name="Path 522" class="cls-1" d="M35.4,0A35.4,35.4,0,1,0,70.8,35.4,35.465,35.465,0,0,0,35.4,0Zm0,67.8A32.4,32.4,0,1,1,67.8,35.4,32.457,32.457,0,0,1,35.4,67.8Z"/>
</svg>
