<svg id="Group_748" data-name="Group 748" xmlns="http://www.w3.org/2000/svg" xmlns:xlink="http://www.w3.org/1999/xlink" viewBox="0 0 70.8 70.8">
  <defs>
    <style>
      .cls-1 {
        fill: none;
      }

      .cls-2 {
        fill: #5db4d3;
      }

      .cls-3 {
        filter: url(#Path_502);
      }
    </style>
    <filter id="Path_502" x="26.4" y="29.4" width="18" height="18" filterUnits="userSpaceOnUse">
      <feOffset dy="3" input="SourceAlpha"/>
      <feGaussianBlur stdDeviation="3" result="blur"/>
      <feFlood flood-opacity="0.161"/>
      <feComposite operator="in" in2="blur"/>
      <feComposite in="SourceGraphic"/>
    </filter>
  </defs>
  <g class="cls-3" transform="matrix(1, 0, 0, 1, 0, 0)">
    <path id="Path_502-2" data-name="Path 502" class="cls-1" d="M35.4,35.4"/>
  </g>
  <g id="Group_747" data-name="Group 747">
    <g id="Group_746" data-name="Group 746">
      <path id="Path_503" data-name="Path 503" class="cls-2" d="M35.4,70.8A35.4,35.4,0,1,1,70.8,35.4,35.465,35.465,0,0,1,35.4,70.8ZM35.4,3A32.4,32.4,0,1,0,67.8,35.4,32.392,32.392,0,0,0,35.4,3Z"/>
    </g>
  </g>
  <path id="Path_504" data-name="Path 504" class="cls-2" d="M52.355,27.5H41.012V16.152A2.542,2.542,0,0,0,38.46,13.6H30.047A2.542,2.542,0,0,0,27.5,16.152V27.5H16.152A2.542,2.542,0,0,0,13.6,30.047v8.318a2.542,2.542,0,0,0,2.552,2.552H27.5V52.261a2.542,2.542,0,0,0,2.552,2.552h8.318a2.542,2.542,0,0,0,2.552-2.552V40.918H52.261a2.542,2.542,0,0,0,2.552-2.552V30.047A2.463,2.463,0,0,0,52.355,27.5Z" transform="translate(1.194 1.194)"/>
</svg>
